<svg width="456" height="456" viewBox="0 0 456 456" fill="none" xmlns="http://www.w3.org/2000/svg">
<path d="M131 166.455H146.727L157.545 192.818H158.091L168.909 166.455H184.636V213H172.273V186.091H171.909L161.545 212.636H154.091L143.727 185.909H143.364V213H131V166.455ZM218.17 166.455H230.807V196.273C230.807 199.818 229.958 202.886 228.261 205.477C226.58 208.053 224.231 210.045 221.216 211.455C218.201 212.848 214.701 213.545 210.716 213.545C206.701 213.545 203.186 212.848 200.17 211.455C197.155 210.045 194.807 208.053 193.125 205.477C191.458 202.886 190.625 199.818 190.625 196.273V166.455H203.261V195.182C203.261 196.621 203.58 197.909 204.216 199.045C204.852 200.167 205.731 201.045 206.852 201.682C207.989 202.318 209.277 202.636 210.716 202.636C212.17 202.636 213.458 202.318 214.58 201.682C215.701 201.045 216.58 200.167 217.216 199.045C217.852 197.909 218.17 196.621 218.17 195.182V166.455ZM236.812 213V166.455H249.449V202.818H268.267V213H236.812ZM266.54 176.636V166.455H306.994V176.636H292.994V213H280.54V176.636H266.54ZM324.386 166.455V213H311.75V166.455H324.386ZM131 290V243.455H163.727V253.636H143.636V261.636H161.727V271.818H143.636V290H131ZM168.375 290V243.455H181.011V279.818H199.83V290H168.375ZM217.028 290H203.392L218.756 243.455H236.028L251.392 290H237.756L227.574 256.273H227.21L217.028 290ZM214.483 271.636H240.119V281.091H214.483V271.636ZM255.875 290V243.455H275.966C279.42 243.455 282.443 244.136 285.034 245.5C287.625 246.864 289.64 248.78 291.08 251.25C292.519 253.72 293.239 256.606 293.239 259.909C293.239 263.242 292.496 266.129 291.011 268.568C289.542 271.008 287.473 272.886 284.807 274.205C282.155 275.523 279.057 276.182 275.511 276.182H263.511V266.364H272.966C274.451 266.364 275.716 266.106 276.761 265.591C277.822 265.061 278.633 264.311 279.193 263.341C279.769 262.371 280.057 261.227 280.057 259.909C280.057 258.576 279.769 257.439 279.193 256.5C278.633 255.545 277.822 254.818 276.761 254.318C275.716 253.803 274.451 253.545 272.966 253.545H268.511V290H255.875Z" fill="white"/>
</svg>
